# xmcd
#
# Track frame offsets:
#	150
#	18410
#	33852
#	62977
#	81930
#	96792
#	112130
#	129697
#	144582
#	157992
#
# Disc length: 2308 seconds
#
# Revision: 1333221945
# Processed by: cddbd v1.5.2PL0 Copyright (c) Steve Scherf et al.
# Submitted via: EZCDAudioConverter 8.0.4.1
#
DISCID=7e09020a,8409020a,8509020a
DTITLE=Chet Atkins and Mark Knopfler - Neck And Neck
DYEAR=1990
DGENRE=Pop/Rock/Country
TTITLE0=Poor Boy Blues - (1990)
TTITLE1=Sweet Dreams - (1990)
TTITLE2=There'll Be Some Changes Made - (1990)
TTITLE3=Just One Time - (1990)
TTITLE4=So Soft, Your Goodbye - (1990)
TTITLE5=Yakety Axe - (1990)
TTITLE6=Tears - (1990)
TTITLE7=Tahitian Skies - (1990)
TTITLE8=I'll See You In My Dreams - (1990)
TTITLE9=The Next Time In My Town - (1990)
EXTD=
EXTT0=
EXTT1=
EXTT2=
EXTT3=
EXTT4=
EXTT5=
EXTT6=
EXTT7=
EXTT8=
EXTT9=
PLAYORDER=
